<svg width="328" height="120" viewBox="0 0 328 120" fill="none" xmlns="http://www.w3.org/2000/svg">
<path d="M0 15.8258L2.76405 11.6699C4.60674 6.12876 9.21348 -3.56827 13.8202 6.12876C19.3483 15.8258 23.9551 44.9169 28.5618 62.9256C33.1685 79.5491 37.7753 85.0902 42.382 82.3197C47.9101 79.5491 52.5169 69.8521 57.1236 65.6962C61.7303 60.155 66.3371 60.155 70.9438 55.9992C76.4719 50.458 81.0787 40.761 85.6854 43.5316C90.2921 46.3021 94.8989 60.155 99.5056 68.4668C105.034 75.3932 109.64 75.3932 114.247 72.6226C118.854 69.8521 123.461 65.6962 128.067 53.2286C132.674 40.761 138.202 21.3669 142.809 13.0552C147.416 6.12876 152.022 11.6699 156.629 13.0552C161.236 15.8258 166.764 15.8258 171.371 21.3669C175.978 25.5228 180.584 35.2198 185.191 47.6874C189.798 60.155 195.326 75.3932 199.933 68.4668C204.539 60.155 209.146 31.064 213.753 31.064C218.36 31.064 222.966 60.155 228.494 57.3845C233.101 55.9992 237.708 21.3669 242.315 13.0552C246.921 6.12876 251.528 25.5228 257.056 40.761C261.663 55.9992 266.27 65.6962 270.876 62.9256C275.483 60.155 280.09 46.3021 285.618 43.5316C290.225 40.761 294.831 50.458 299.438 46.3021C304.045 40.761 308.652 21.3669 314.18 13.0552C318.787 6.12876 323.393 11.6699 325.236 13.0552L328 15.8258" stroke="#F7931A" stroke-width="2"/>
<path fill-rule="evenodd" clip-rule="evenodd" d="M0 15.8584L2.76405 11.6927C4.60674 6.13849 9.21348 -3.58139 13.8202 6.13849C19.3483 15.8584 23.9551 45.018 28.5618 63.0692C33.1685 79.7319 37.7753 85.2861 42.382 82.509C47.9101 79.7319 52.5169 70.012 57.1236 65.8464C61.7303 60.2921 66.3371 60.2921 70.9438 56.1265C76.4719 50.5722 81.0787 40.8524 85.6854 43.6295C90.2921 46.4066 94.8989 60.2921 99.5056 68.6235C105.034 75.5662 109.64 75.5662 114.247 72.7891C118.854 70.012 123.461 65.8464 128.067 53.3494C132.674 40.8524 138.202 21.4126 142.809 13.0813C147.416 6.13849 152.022 11.6927 156.629 13.0813C161.236 15.8584 166.764 15.8584 171.371 21.4126C175.978 25.5783 180.584 35.2981 185.191 47.7951C189.798 60.2921 195.326 75.5662 199.933 68.6235C204.539 60.2921 209.146 31.1325 213.753 31.1325C218.36 31.1325 222.966 60.2921 228.494 57.515C233.101 56.1265 237.708 21.4126 242.315 13.0813C246.921 6.13849 251.528 25.5783 257.056 40.8524C261.663 56.1265 266.27 65.8464 270.876 63.0692C275.483 60.2921 280.09 46.4066 285.618 43.6295C290.225 40.8524 294.831 50.5722 299.438 46.4066C304.045 40.8524 308.652 21.4126 314.18 13.0813C318.787 6.13849 323.393 11.6927 325.236 13.0813L328 15.8584V120H325.236C323.393 120 318.787 120 314.18 120C308.652 120 304.045 120 299.438 120C294.831 120 290.225 120 285.618 120C280.09 120 275.483 120 270.876 120C266.27 120 261.663 120 257.056 120C251.528 120 246.921 120 242.315 120C237.708 120 233.101 120 228.494 120C222.966 120 218.36 120 213.753 120C209.146 120 204.539 120 199.933 120C195.326 120 189.798 120 185.191 120C180.584 120 175.978 120 171.371 120C166.764 120 161.236 120 156.629 120C152.022 120 147.416 120 142.809 120C138.202 120 132.674 120 128.067 120C123.461 120 118.854 120 114.247 120C109.64 120 105.034 120 99.5056 120C94.8989 120 90.2921 120 85.6854 120C81.0787 120 76.4719 120 70.9438 120C66.3371 120 61.7303 120 57.1236 120C52.5169 120 47.9101 120 42.382 120C37.7753 120 33.1685 120 28.5618 120C23.9551 120 19.3483 120 13.8202 120C9.21348 120 4.60674 120 2.76405 120H0V15.8584Z" fill="url(#paint0_linear_44_4713)"/>
<defs>
<linearGradient id="paint0_linear_44_4713" x1="164" y1="2" x2="164" y2="120" gradientUnits="userSpaceOnUse">
<stop stop-color="#F7931A"/>
<stop offset="1" stop-color="#FF8C00" stop-opacity="0"/>
</linearGradient>
</defs>
</svg>
